<svg viewBox="0 0 528 135" xmlns="http://www.w3.org/2000/svg" fill-rule="evenodd" clip-rule="evenodd" stroke-linejoin="round" stroke-miterlimit="2"><path d="M164.87 79.845l27.295-41.688 9.552 41.688H164.87zM.5 130.567v1.173l87.68-.1h42.503l16.495-24.967h60.631l5.715 24.968H253.6l-5.79-21.612c5.74 7.16 13.238 12.943 22.788 17.105 10.8 4.737 23.367 7.093 37.751 7.093 10.702 0 20.934-1.298 30.634-3.954 9.684-2.602 18.184-6.485 25.508-11.487l12.018-54.195h-35.606l-8.135 36.378c-5.698 2.098-12.03 3.114-18.922 3.114-11.525 0-20.52-2.6-26.86-7.814-6.374-5.178-9.574-12.206-9.574-21.02 0-8.544 1.968-16.209 5.882-22.969 3.982-6.713 9.568-12.023 16.795-15.893 7.284-3.854 15.71-5.793 25.327-5.793 7.617 0 14.184 1.11 19.77 3.236 1.953.753 4.614 2.38 7.589 4.437 5.418 3.747 10.658-.1 15.768-3.682l29.642-3.385C385.033 15.411 355.475.5 327.251.5c-17.77 0-33.487 3.313-47.174 9.927-13.714 6.619-24.35 15.754-31.97 27.437-6.299 9.748-9.852 20.575-10.896 32.457L219.228 3.06h-39.694L108.12 103.525H53.41l5.408-23.476h56.824l5.91-27.19H65.13l4.948-21.68h64.69l6.337-28.12H27.902L.5 126.677" fill="#fff" fill-rule="nonzero" stroke="#fff" stroke-width=".993"/><path d="M506.612 17.708v-8.29h-2.966v-1.69h7.943v1.69h-2.97v8.29h-2.007zm6.232 0v-9.98h3.011l1.84 6.81 1.757-6.81h3.054v9.98h-1.883V9.853l-2.007 7.855h-1.924l-1.966-7.855v7.855h-1.882z" fill="#fff" fill-rule="nonzero" stroke="#fff"/><path d="M402.515 54.168h6.985l2.695 10.454 2.684-10.454h6.96v17.18h-4.335V58.247l-3.364 13.1h-3.926l-3.35-13.1v13.1h-4.349v-17.18zm48.343 0h5.296V64.41a8.648 8.648 0 01-.474 2.877 6.234 6.234 0 01-1.488 2.367c-.676.675-1.385 1.15-2.127 1.424-1.032.382-2.27.574-3.715.574-.836 0-1.748-.06-2.737-.176-.988-.117-1.814-.35-2.478-.697-.664-.348-1.272-.842-1.822-1.483-.55-.64-.928-1.3-1.13-1.98-.329-1.094-.493-2.063-.493-2.906V54.168h5.296v10.489c0 .937.26 1.67.78 2.197.52.527 1.24.79 2.162.79.914 0 1.631-.26 2.15-.778.52-.52.78-1.256.78-2.21V54.169zm17.974 11.496l5.051-.316c.11.82.332 1.445.668 1.875.547.695 1.328 1.043 2.344 1.043.757 0 1.341-.178 1.752-.533.41-.356.615-.768.615-1.236 0-.446-.196-.844-.586-1.196-.39-.351-1.297-.683-2.719-.996-2.328-.523-3.988-1.22-4.98-2.086-1-.867-1.5-1.972-1.5-3.316 0-.883.256-1.717.767-2.502.512-.785 1.281-1.403 2.31-1.852 1.026-.45 2.434-.674 4.223-.674 2.196 0 3.87.409 5.022 1.225 1.152.816 1.838 2.115 2.057 3.897l-5.004.292c-.133-.773-.412-1.335-.838-1.687-.426-.352-1.014-.527-1.764-.527-.617 0-1.082.13-1.394.392-.313.262-.469.58-.469.955 0 .274.13.52.387.739.25.226.843.437 1.781.632 2.32.5 3.982 1.006 4.986 1.518 1.004.512 1.734 1.146 2.192 1.904.457.758.685 1.606.685 2.543a5.45 5.45 0 01-.914 3.047c-.609.93-1.46 1.635-2.555 2.115-1.093.48-2.472.72-4.136.72-2.922 0-4.946-.561-6.07-1.686-1.126-1.125-1.762-2.555-1.91-4.29zm24.558-11.496h5.32v17.18h-5.32zm28.653 10.161l4.652 1.406c-.312 1.304-.804 2.394-1.476 3.269a6.417 6.417 0 01-2.502 1.98c-.996.446-2.264.669-3.803.669-1.867 0-3.393-.272-4.576-.815-1.184-.543-2.205-1.498-3.065-2.865-.859-1.367-1.289-3.117-1.289-5.25 0-2.844.756-5.03 2.268-6.557 1.512-1.527 3.65-2.291 6.416-2.291 2.164 0 3.865.438 5.103 1.313 1.24.875 2.16 2.219 2.76 4.03l-4.687 1.044c-.164-.523-.336-.906-.516-1.148a3.05 3.05 0 00-1.09-.938 3.125 3.125 0 00-1.44-.328c-1.204 0-2.126.484-2.767 1.453-.484.719-.726 1.848-.726 3.387 0 1.906.29 3.213.867 3.92.578.707 1.39 1.06 2.437 1.06 1.016 0 1.784-.285 2.303-.855.52-.57.897-1.4 1.131-2.484z" fill="#fff" fill-rule="nonzero" stroke="#fff" stroke-width=".95"/></svg>