<svg viewBox="0 0 190 13" xmlns="http://www.w3.org/2000/svg" fill-rule="evenodd" clip-rule="evenodd" stroke-linejoin="round" stroke-miterlimit="2"><path fill="none" d="M0 0h190v13H0z"/><path d="M4.952 9.094c-.354 0-.65-.07-.888-.211a1.642 1.642 0 01-.571-.552 2.289 2.289 0 01-.314-.76 3.928 3.928 0 01-.095-.857v-.257c0-.285.032-.567.095-.848s.168-.535.314-.763c.147-.224.339-.406.577-.546.238-.141.532-.211.882-.211.228 0 .44.039.638.116a1.53 1.53 0 01.848.784c.083.177.127.366.131.565h1.068c0-.334-.067-.647-.201-.94a2.349 2.349 0 00-.556-.763 2.724 2.724 0 00-.851-.503 3 3 0 00-1.077-.187c-.501 0-.938.09-1.312.269a2.694 2.694 0 00-.934.72 3.093 3.093 0 00-.568 1.056 4.13 4.13 0 00-.189 1.251v.257c0 .439.063.857.189 1.254s.315.746.568 1.047c.248.305.559.547.934.726.374.179.811.269 1.312.269.35 0 .685-.06 1.007-.181.321-.12.606-.281.854-.485.249-.199.447-.432.595-.699.149-.266.225-.546.229-.839H6.569a1.047 1.047 0 01-.143.51 1.401 1.401 0 01-.363.406 1.856 1.856 0 01-1.111.372zm4.37-2.57v.135c0 .476.069.917.207 1.324.139.407.338.761.599 1.062.256.301.57.537.943.708.372.171.792.257 1.26.257.464 0 .881-.086 1.251-.257a2.77 2.77 0 00.946-.708c.257-.301.454-.655.592-1.062a4.07 4.07 0 00.208-1.324v-.135c0-.476-.069-.918-.208-1.327a3.19 3.19 0 00-.592-1.065 2.795 2.795 0 00-.949-.711 2.954 2.954 0 00-1.26-.26 2.92 2.92 0 00-1.251.26c-.371.173-.684.41-.94.711-.261.301-.46.656-.599 1.065a4.124 4.124 0 00-.207 1.327zm1.129.135v-.135c0-.321.039-.629.116-.924a2.35 2.35 0 01.354-.778c.155-.224.348-.402.58-.535.232-.132.504-.198.818-.198.313 0 .587.066.821.198.234.133.43.311.589.535.154.223.271.483.351.778.079.295.119.603.119.924v.135c0 .325-.039.635-.116.93a2.483 2.483 0 01-.348.779 1.79 1.79 0 01-.589.531c-.234.13-.506.195-.815.195-.313 0-.588-.065-.824-.195a1.724 1.724 0 01-.586-.531 2.364 2.364 0 01-.354-.779 3.668 3.668 0 01-.116-.93zm6.69 3.228h1.129V5.151a2.16 2.16 0 01.61-.702c.151-.102.315-.182.494-.241s.373-.088.58-.088c.24 0 .453.028.638.085.185.057.343.149.473.275.126.126.222.291.287.494.065.204.098.452.098.745v4.168h1.129V5.694c0-.439-.054-.819-.162-1.138a2.074 2.074 0 00-.461-.79 1.797 1.797 0 00-.723-.458 2.866 2.866 0 00-.943-.147c-.256.004-.5.042-.729.113a2.444 2.444 0 00-1.008.605 3.042 3.042 0 00-.32.381l-.079-.977h-1.013v6.604zm10.174-8.203H26.18v1.599h-1.734v.873h1.734v3.589c0 .407.054.754.162 1.041.107.287.255.52.442.699.187.183.408.316.662.399.255.084.528.126.821.126.175 0 .351-.009.528-.025.177-.016.345-.041.504-.073.158-.029.305-.064.439-.107s.248-.093.342-.149l-.159-.8a9.785 9.785 0 01-.61.122c-.126.02-.254.038-.385.052-.13.014-.256.021-.378.021-.167 0-.325-.02-.473-.061a.964.964 0 01-.662-.61 1.769 1.769 0 01-.098-.635V4.156h2.515v-.873h-2.515V1.684zm9.168 8.203h1.178V9.79a3.017 3.017 0 01-.171-.644 4.256 4.256 0 01-.061-.699v-3.07c0-.37-.068-.694-.202-.971a2.004 2.004 0 00-.549-.695 2.432 2.432 0 00-.836-.412 3.787 3.787 0 00-1.044-.138c-.411 0-.778.057-1.102.171a2.712 2.712 0 00-.821.446 2.028 2.028 0 00-.521.628 1.574 1.574 0 00-.187.709h1.136a.85.85 0 01.1-.4 1.01 1.01 0 01.284-.333c.122-.094.272-.169.449-.226.177-.057.377-.085.601-.085.24 0 .457.03.65.091s.357.147.491.257a1.178 1.178 0 01.421.946v.519h-1.232c-.46 0-.876.044-1.249.134-.372.089-.69.224-.955.403a1.915 1.915 0 00-.613.683c-.145.273-.217.59-.217.952 0 .277.054.534.162.772.108.239.261.443.461.614.195.175.434.313.717.415.283.102.599.153.949.153a2.819 2.819 0 001.153-.251c.167-.077.321-.167.461-.268.141-.102.268-.21.382-.324.012.139.031.272.058.4.026.128.062.235.107.32zm-1.996-.86c-.22 0-.413-.029-.58-.086a1.143 1.143 0 01-.415-.238.911.911 0 01-.247-.354 1.21 1.21 0 01-.083-.451c0-.171.032-.324.095-.458a.966.966 0 01.278-.348c.17-.138.401-.241.692-.308a4.598 4.598 0 011.023-.101h1.049V8.02c-.065.13-.154.255-.268.375-.114.12-.248.227-.403.321a2.388 2.388 0 01-.525.225 2.148 2.148 0 01-.616.086zm7.971.067c-.354 0-.65-.07-.888-.211a1.65 1.65 0 01-.571-.552 2.289 2.289 0 01-.314-.76 3.928 3.928 0 01-.095-.857v-.257c0-.285.032-.567.095-.848s.168-.535.314-.763c.147-.224.339-.406.577-.546.238-.141.532-.211.882-.211.228 0 .44.039.638.116a1.53 1.53 0 01.848.784c.084.177.127.366.131.565h1.068c0-.334-.067-.647-.201-.94a2.346 2.346 0 00-.555-.763 2.729 2.729 0 00-.852-.503 2.993 2.993 0 00-1.077-.187c-.501 0-.938.09-1.312.269a2.694 2.694 0 00-.934.72 3.11 3.11 0 00-.568 1.056 4.13 4.13 0 00-.189 1.251v.257c0 .439.063.857.189 1.254s.316.746.568 1.047c.248.305.559.547.934.726.374.179.811.269 1.312.269.35 0 .686-.06 1.007-.181.321-.12.606-.281.854-.485.249-.199.447-.432.596-.699.148-.266.224-.546.228-.839h-1.068a1.047 1.047 0 01-.143.51 1.401 1.401 0 01-.363.406 1.856 1.856 0 01-1.111.372zm7.361-7.41h-1.136v1.599H46.95v.873h1.733v3.589c0 .407.054.754.162 1.041.108.287.256.52.443.699.187.183.408.316.662.399a2.6 2.6 0 00.821.126c.175 0 .351-.009.528-.025a4.64 4.64 0 00.503-.073c.159-.029.306-.064.44-.107s.248-.093.342-.149l-.159-.8a9.981 9.981 0 01-.61.122c-.127.02-.255.038-.385.052-.13.014-.256.021-.378.021-.167 0-.325-.02-.473-.061a.98.98 0 01-.663-.61 1.77 1.77 0 01-.097-.635V4.156h2.514v-.873h-2.514V1.684zm10.84 3.388a6.06 6.06 0 00-.171-1.676 3.822 3.822 0 00-.586-1.291 2.715 2.715 0 00-.977-.827 2.923 2.923 0 00-1.324-.289c-.509 0-.974.115-1.395.347a3.49 3.49 0 00-1.096.959 5.176 5.176 0 00-.778 1.519 6.693 6.693 0 00-.326 1.856 6.67 6.67 0 00.149 1.718c.12.523.317.974.589 1.352.269.378.618.672 1.047.882.429.21.943.314 1.541.314.13 0 .269-.009.415-.027.147-.018.291-.048.434-.089.142-.036.278-.083.408-.14a1.67 1.67 0 00.348-.201l-.195-.715a1.885 1.885 0 01-.299.165c-.11.049-.226.09-.348.122a2.63 2.63 0 01-.745.11c-.455 0-.851-.078-1.187-.235a2.095 2.095 0 01-.827-.686 2.972 2.972 0 01-.47-1.093 5.803 5.803 0 01-.116-1.477c.017-.59.1-1.132.251-1.627.15-.494.362-.916.634-1.266.257-.326.547-.577.87-.754a2.209 2.209 0 011.077-.265c.391 0 .739.075 1.044.225.305.151.564.369.775.653.208.285.362.633.464 1.044.102.411.145.875.128 1.392a6.024 6.024 0 01-.067.842 3.25 3.25 0 01-.177.69 1.347 1.347 0 01-.29.473.55.55 0 01-.583.143.269.269 0 01-.14-.122.625.625 0 01-.092-.241 1.61 1.61 0 01-.012-.406l.269-3.076a1.418 1.418 0 00-.427-.381c-.18-.108-.405-.162-.678-.162a1.58 1.58 0 00-.793.204 1.96 1.96 0 00-.629.583 3.275 3.275 0 00-.446.931 5.58 5.58 0 00-.225 1.224c-.025.317-.02.608.015.872.034.265.098.493.192.684.09.191.208.34.354.446a.868.868 0 00.519.158c.138 0 .27-.02.397-.061.126-.04.244-.097.354-.171.089-.065.174-.14.253-.225.079-.086.151-.179.217-.281.028.097.065.186.109.265a.867.867 0 00.464.406c.118.045.251.067.397.067.301 0 .555-.087.763-.262.207-.175.378-.401.513-.678.13-.276.227-.585.293-.924.065-.34.103-.673.116-.998zm-4.206.702c.033-.334.083-.636.15-.907a2.68 2.68 0 01.265-.692 1.27 1.27 0 01.406-.437c.161-.104.349-.155.565-.155a.9.9 0 01.18.018.681.681 0 01.174.061l-.232 2.655-.006.061a1.615 1.615 0 01-.312.458.883.883 0 01-.308.195 1.013 1.013 0 01-.351.061.384.384 0 01-.253-.088.631.631 0 01-.174-.26 1.508 1.508 0 01-.092-.412 4.162 4.162 0 01-.012-.558zm8.612 4.236c.643 0 1.183-.13 1.621-.388.437-.258.766-.554.986-.888l-.69-.537a2.347 2.347 0 01-.781.647 2.298 2.298 0 01-1.075.244c-.305 0-.584-.057-.836-.171a1.93 1.93 0 01-.647-.47 2.107 2.107 0 01-.412-.647 2.93 2.93 0 01-.192-.848v-.043h4.718v-.507c0-.459-.058-.887-.174-1.281a2.95 2.95 0 00-.528-1.032 2.453 2.453 0 00-.888-.68c-.356-.165-.772-.248-1.248-.248-.379 0-.748.078-1.108.232-.36.155-.681.377-.961.666-.285.293-.513.65-.684 1.071a3.775 3.775 0 00-.256 1.431v.256c0 .46.077.885.232 1.276.154.391.37.728.647 1.013.276.285.609.507.998.665a3.34 3.34 0 001.278.239zm-.146-5.921c.289 0 .538.053.748.159.209.106.383.244.521.415.139.171.247.373.324.607.077.234.116.453.116.656v.055h-3.552a2.79 2.79 0 01.235-.809c.111-.233.249-.432.412-.595a1.694 1.694 0 011.196-.488zm9.07 5.798h1.178V9.79a3.017 3.017 0 01-.171-.644 4.256 4.256 0 01-.061-.699v-3.07c0-.37-.067-.694-.202-.971a2.004 2.004 0 00-.549-.695 2.432 2.432 0 00-.836-.412 3.787 3.787 0 00-1.044-.138c-.411 0-.778.057-1.102.171a2.712 2.712 0 00-.821.446 2.028 2.028 0 00-.521.628 1.6 1.6 0 00-.187.709h1.136a.85.85 0 01.1-.4c.068-.128.162-.239.284-.333.122-.094.272-.169.449-.226.177-.057.377-.085.601-.085.24 0 .457.03.65.091s.357.147.491.257c.135.114.238.25.312.409.073.158.11.337.11.537v.519h-1.233c-.46 0-.876.044-1.249.134-.372.089-.69.224-.955.403a1.915 1.915 0 00-.613.683c-.145.273-.217.59-.217.952 0 .277.054.534.162.772.108.239.261.443.461.614.195.175.434.313.717.415.283.102.599.153.949.153a2.828 2.828 0 001.154-.251c.166-.077.32-.167.46-.268.141-.102.268-.21.382-.324.012.139.031.272.058.4.026.128.062.235.107.32zm-1.996-.86c-.22 0-.413-.029-.58-.086a1.143 1.143 0 01-.415-.238.911.911 0 01-.247-.354 1.21 1.21 0 01-.083-.451.977.977 0 01.373-.806c.171-.138.401-.241.692-.308a4.598 4.598 0 011.023-.101h1.05V8.02a1.59 1.59 0 01-.269.375c-.114.12-.248.227-.403.321a2.388 2.388 0 01-.525.225 2.143 2.143 0 01-.616.086zm4.95-2.496v.128c0 .472.061.912.183 1.321.122.409.297.764.525 1.065.224.301.498.537.824.708a2.31 2.31 0 001.092.257c.24 0 .464-.026.672-.077.207-.051.396-.123.567-.216.11-.061.213-.133.309-.214.095-.081.186-.171.271-.269v.568c0 .285-.041.537-.122.757a1.444 1.444 0 01-.903.891 2.153 2.153 0 01-.727.116c-.15 0-.301-.015-.451-.046a2.045 2.045 0 01-.452-.149 2.237 2.237 0 01-.445-.278 2.894 2.894 0 01-.428-.424l-.586.677c.151.216.331.397.541.543.209.147.428.263.656.348a3.494 3.494 0 001.251.251c.415 0 .793-.061 1.135-.184a2.47 2.47 0 00.885-.537c.244-.236.434-.523.571-.86a3.09 3.09 0 00.204-1.16V3.283H81.49l-.055.721a2.36 2.36 0 00-.247-.269 2.087 2.087 0 00-.879-.482 2.747 2.747 0 00-.73-.092 2.38 2.38 0 00-1.104.251 2.422 2.422 0 00-.83.695 3.191 3.191 0 00-.522 1.065c-.12.413-.18.866-.18 1.359zm1.129.128v-.128c0-.322.033-.628.101-.919.067-.291.174-.548.32-.772.142-.22.327-.395.552-.525a1.61 1.61 0 01.815-.195 1.668 1.668 0 01.934.262c.126.086.238.185.336.299.097.114.183.24.256.379v3.027a2.197 2.197 0 01-.256.391 1.699 1.699 0 01-.33.305 1.544 1.544 0 01-.424.198 1.84 1.84 0 01-.528.07 1.6 1.6 0 01-.806-.192 1.585 1.585 0 01-.549-.522 2.31 2.31 0 01-.32-.763 3.985 3.985 0 01-.101-.915zm6.573 5.768h1.13V9.253a2.266 2.266 0 00.561.451c.175.098.371.173.589.226.218.053.453.08.705.08.415 0 .784-.086 1.108-.257.323-.171.595-.407.815-.708.219-.301.386-.656.5-1.065.114-.409.171-.849.171-1.321v-.128c0-.493-.057-.946-.171-1.359a3.219 3.219 0 00-.5-1.065 2.32 2.32 0 00-.818-.695 2.428 2.428 0 00-1.123-.251c-.24 0-.465.026-.675.077a2.197 2.197 0 00-.912.457 2.205 2.205 0 00-.293.309l-.055-.721h-1.032v9.144zm4.45-5.896v.128c0 .321-.036.628-.107.921-.071.293-.18.552-.327.775a1.659 1.659 0 01-.561.535 1.591 1.591 0 01-.812.198c-.195 0-.373-.025-.534-.073a1.66 1.66 0 01-.436-.202 1.363 1.363 0 01-.305-.268 2.199 2.199 0 01-.238-.342v-3.18a2.06 2.06 0 01.268-.378c.102-.114.218-.21.348-.287.118-.078.251-.137.4-.177.148-.041.31-.061.485-.061.317 0 .59.065.818.195.228.13.417.305.567.525.147.224.256.481.327.772.071.291.107.597.107.919zm7.385-3.37c-.48 0-.908.105-1.285.315a3.024 3.024 0 00-.967.857l-.006-.165-.049-.885h-1.074v6.604h1.135V5.652c.073-.204.166-.388.278-.553a1.764 1.764 0 01.979-.714c.224-.067.474-.101.751-.101a5.601 5.601 0 011.245.141l.153-1.105a2.019 2.019 0 00-.51-.116 5.29 5.29 0 00-.65-.043zm2.857 3.363v.135c0 .476.069.917.207 1.324.138.407.338.761.598 1.062.257.301.571.537.943.708.373.171.793.257 1.261.257.463 0 .881-.086 1.251-.257a2.78 2.78 0 00.946-.708c.256-.301.454-.655.592-1.062.138-.407.207-.848.207-1.324v-.135c0-.476-.069-.918-.207-1.327a3.208 3.208 0 00-.592-1.065 2.805 2.805 0 00-.949-.711 2.962 2.962 0 00-1.261-.26c-.463 0-.881.087-1.251.26-.37.173-.683.41-.94.711-.26.301-.46.656-.598 1.065a4.124 4.124 0 00-.207 1.327zm1.129.135v-.135a3.6 3.6 0 01.116-.924 2.35 2.35 0 01.354-.778c.154-.224.348-.402.58-.535a1.62 1.62 0 01.817-.198c.314 0 .587.066.821.198.234.133.431.311.589.535.155.223.272.483.351.778.08.295.119.603.119.924v.135c0 .325-.038.635-.116.93a2.439 2.439 0 01-.348.779 1.78 1.78 0 01-.589.531c-.234.13-.505.195-.814.195-.314 0-.588-.065-.824-.195a1.715 1.715 0 01-.586-.531 2.364 2.364 0 01-.354-.779 3.624 3.624 0 01-.116-.93zm6.476-.128v.128c0 .472.063.912.189 1.321.126.409.303.764.531 1.065.228.301.503.537.827.708.323.171.684.257 1.083.257.407 0 .763-.07 1.068-.208.305-.138.568-.342.788-.61l.048.695h1.038V.512h-1.129v3.425a2.153 2.153 0 00-.766-.577 2.498 2.498 0 00-1.035-.199 2.357 2.357 0 00-1.922.946 3.21 3.21 0 00-.534 1.065 4.71 4.71 0 00-.186 1.359zm1.129.128v-.128c0-.322.034-.628.103-.919.07-.291.177-.548.324-.772.142-.22.326-.395.552-.525a1.61 1.61 0 01.815-.195c.37 0 .68.086.928.259.248.173.445.394.592.662v3.064a1.823 1.823 0 01-.592.69c-.248.171-.562.256-.94.256a1.6 1.6 0 01-.806-.192 1.576 1.576 0 01-.549-.522 2.357 2.357 0 01-.324-.763 3.93 3.93 0 01-.103-.915zm10.937 3.228h1.026V3.283h-1.136V8.02a1.829 1.829 0 01-.229.393c-.091.12-.198.223-.32.309a1.71 1.71 0 01-.519.247 2.384 2.384 0 01-.677.088c-.216 0-.406-.028-.571-.085a.91.91 0 01-.418-.299 1.383 1.383 0 01-.256-.562 3.878 3.878 0 01-.086-.891V3.283h-1.129v3.925c0 .492.054.915.162 1.266.108.352.261.642.461.87.199.228.439.396.72.504a2.6 2.6 0 00.94.162c.431 0 .811-.091 1.141-.272.33-.181.604-.434.824-.76l.067.909zm5.963-.793c-.354 0-.65-.07-.888-.211a1.639 1.639 0 01-.57-.552 2.27 2.27 0 01-.315-.76 3.927 3.927 0 01-.094-.857v-.257c0-.285.031-.567.094-.848s.168-.535.315-.763c.146-.224.338-.406.576-.546.238-.141.532-.211.882-.211.228 0 .441.039.638.116.197.077.367.183.51.317.142.135.255.29.339.467.083.177.127.366.131.565h1.068c0-.334-.067-.647-.202-.94a2.346 2.346 0 00-.555-.763 2.735 2.735 0 00-.851-.503 3.002 3.002 0 00-1.078-.187c-.5 0-.938.09-1.312.269a2.703 2.703 0 00-.934.72 3.109 3.109 0 00-.567 1.056 4.1 4.1 0 00-.19 1.251v.257c0 .439.063.857.19 1.254.126.397.315.746.567 1.047.248.305.56.547.934.726.374.179.812.269 1.312.269.35 0 .686-.06 1.007-.181.322-.12.607-.281.855-.485.248-.199.446-.432.595-.699.148-.266.225-.546.229-.839h-1.068a1.037 1.037 0 01-.144.51 1.373 1.373 0 01-.363.406 1.851 1.851 0 01-1.111.372zm7.361-7.41h-1.135v1.599h-1.733v.873h1.733v3.589c0 .407.054.754.162 1.041.107.287.255.52.442.699.187.183.408.316.662.399.255.084.528.126.821.126.175 0 .351-.009.528-.025.177-.016.345-.041.504-.073.158-.029.305-.064.439-.107.135-.043.248-.093.342-.149l-.159-.8a9.785 9.785 0 01-.61.122c-.126.02-.254.038-.385.052-.13.014-.256.021-.378.021-.167 0-.324-.02-.473-.061a.97.97 0 01-.662-.61 1.769 1.769 0 01-.098-.635V4.156h2.515v-.873h-2.515V1.684zm5.005 1.599v.983h2.246v4.645h-2.246v.976h5.53v-.976h-2.155V3.283h-3.375zm2.1-1.733c0 .183.056.336.167.458.112.122.282.183.51.183.224 0 .393-.061.507-.183a.645.645 0 00.171-.458.797.797 0 00-.049-.281.536.536 0 00-.147-.213.55.55 0 00-.201-.125.785.785 0 00-.281-.046c-.106 0-.2.015-.284.046a.546.546 0 00-.204.125.558.558 0 00-.144.219.826.826 0 00-.045.275zm4.907 4.974v.135c0 .476.069.917.207 1.324.139.407.338.761.599 1.062.256.301.57.537.943.708.372.171.792.257 1.26.257.464 0 .881-.086 1.251-.257a2.77 2.77 0 00.946-.708c.257-.301.454-.655.592-1.062a4.07 4.07 0 00.208-1.324v-.135c0-.476-.069-.918-.208-1.327a3.19 3.19 0 00-.592-1.065 2.795 2.795 0 00-.949-.711 2.954 2.954 0 00-1.26-.26c-.464 0-.881.087-1.252.26-.37.173-.683.41-.939.711-.261.301-.46.656-.599 1.065a4.124 4.124 0 00-.207 1.327zm1.129.135v-.135c0-.321.039-.629.116-.924a2.35 2.35 0 01.354-.778c.155-.224.348-.402.58-.535.232-.132.504-.198.818-.198.313 0 .587.066.821.198.234.133.43.311.589.535.154.223.271.483.351.778.079.295.119.603.119.924v.135c0 .325-.039.635-.116.93a2.483 2.483 0 01-.348.779 1.79 1.79 0 01-.589.531c-.234.13-.506.195-.815.195-.313 0-.588-.065-.824-.195a1.724 1.724 0 01-.586-.531 2.364 2.364 0 01-.354-.779 3.668 3.668 0 01-.116-.93zm6.689 3.228h1.13V5.151a2.11 2.11 0 01.61-.702c.151-.102.315-.182.494-.241s.373-.088.58-.088c.24 0 .453.028.638.085.185.057.343.149.473.275.126.126.222.291.287.494.065.204.098.452.098.745v4.168h1.129V5.694c0-.439-.054-.819-.162-1.138a2.074 2.074 0 00-.461-.79 1.797 1.797 0 00-.723-.458 2.866 2.866 0 00-.943-.147c-.256.004-.5.042-.729.113a2.444 2.444 0 00-1.008.605 2.96 2.96 0 00-.32.381l-.079-.977h-1.014v6.604zm9.467-.732c0 .236.074.436.223.601.148.165.369.247.662.247.289 0 .511-.081.665-.244a.84.84 0 00.232-.604.886.886 0 00-.229-.619c-.152-.169-.375-.254-.668-.254-.297 0-.519.086-.665.257a.91.91 0 00-.22.616zm8.35-.061c-.354 0-.65-.07-.888-.211a1.642 1.642 0 01-.571-.552 2.268 2.268 0 01-.314-.76 3.868 3.868 0 01-.095-.857v-.257c0-.285.031-.567.095-.848.063-.281.167-.535.314-.763.146-.224.339-.406.577-.546.238-.141.532-.211.882-.211.228 0 .44.039.637.116a1.546 1.546 0 01.849.784c.083.177.127.366.131.565h1.068c0-.334-.067-.647-.201-.94a2.364 2.364 0 00-.556-.763 2.735 2.735 0 00-.851-.503 3 3 0 00-1.077-.187c-.501 0-.938.09-1.313.269a2.7 2.7 0 00-.933.72 3.093 3.093 0 00-.568 1.056 4.13 4.13 0 00-.189 1.251v.257c0 .439.063.857.189 1.254s.315.746.568 1.047c.248.305.559.547.933.726.375.179.812.269 1.313.269.35 0 .685-.06 1.007-.181.321-.12.606-.281.854-.485.248-.199.447-.432.595-.699.149-.266.225-.546.229-.839h-1.068a1.047 1.047 0 01-.143.51 1.39 1.39 0 01-.364.406c-.15.118-.322.209-.515.274a1.86 1.86 0 01-.595.098zm4.37-2.57v.135c0 .476.069.917.207 1.324.139.407.338.761.598 1.062.257.301.571.537.943.708.373.171.793.257 1.261.257.464 0 .881-.086 1.251-.257a2.77 2.77 0 00.946-.708c.256-.301.454-.655.592-1.062.138-.407.208-.848.208-1.324v-.135c0-.476-.07-.918-.208-1.327a3.208 3.208 0 00-.592-1.065 2.795 2.795 0 00-.949-.711 2.954 2.954 0 00-1.26-.26c-.464 0-.881.087-1.252.26-.37.173-.683.41-.94.711-.26.301-.459.656-.598 1.065a4.124 4.124 0 00-.207 1.327zm1.129.135v-.135c0-.321.039-.629.116-.924a2.35 2.35 0 01.354-.778c.154-.224.348-.402.58-.535.232-.132.504-.198.818-.198.313 0 .587.066.821.198.233.133.43.311.588.535.155.223.272.483.351.778.08.295.119.603.119.924v.135c0 .325-.038.635-.116.93a2.46 2.46 0 01-.347.779 1.79 1.79 0 01-.589.531c-.234.13-.506.195-.815.195-.314 0-.588-.065-.824-.195a1.715 1.715 0 01-.586-.531 2.364 2.364 0 01-.354-.779 3.668 3.668 0 01-.116-.93zm7.208-3.376h-1.013v6.604h1.074V4.632a.883.883 0 01.095-.183.707.707 0 01.137-.152.74.74 0 01.253-.132c.1-.03.217-.045.351-.045.122 0 .229.015.321.045a.553.553 0 01.229.144.621.621 0 01.143.262c.031.106.046.228.046.366v4.95h1.074V4.822a.986.986 0 01.073-.278.727.727 0 01.153-.223.708.708 0 01.244-.146.985.985 0 01.348-.055c.126 0 .237.016.333.048a.626.626 0 01.241.147.698.698 0 01.14.262c.033.106.049.228.049.367v4.943h1.074V4.956c0-.318-.036-.593-.11-.827a1.45 1.45 0 00-.317-.571 1.22 1.22 0 00-.464-.296 1.785 1.785 0 00-1.077-.033 1.55 1.55 0 00-.382.164 1.574 1.574 0 00-.451.476 1.32 1.32 0 00-.162-.274 1.038 1.038 0 00-.211-.208 1.213 1.213 0 00-.369-.168 1.807 1.807 0 00-.473-.058 1.553 1.553 0 00-.79.202 1.48 1.48 0 00-.528.543l-.031-.623z" fill-rule="nonzero"/></svg>