<svg viewBox="0 0 540 170" xmlns="http://www.w3.org/2000/svg" fill-rule="evenodd" clip-rule="evenodd" stroke-miterlimit="1.5"><path fill="none" d="M0 0h540v170H0z"/><clipPath id="a"><path d="M0 0h540v170H0z"/></clipPath><g clip-path="url(#a)"><path d="M170.957 113.375L198.82 70.82l9.75 42.555h-37.613zM3.166 165.152v1.198l89.505-.102h43.388l16.838-25.487h61.893l5.833 25.487h40.91l-5.91-22.061c5.858 7.308 13.513 13.213 23.262 17.461 11.024 4.835 23.852 7.24 38.536 7.24 10.925 0 21.369-1.325 31.271-4.036 9.886-2.656 18.562-6.62 26.039-11.726l12.268-55.323h-36.346l-8.305 37.135c-5.817 2.142-12.28 3.179-19.316 3.179-11.764 0-20.947-2.654-27.418-7.977-6.507-5.285-9.773-12.46-9.773-21.456 0-8.723 2.008-16.547 6.004-23.447 4.065-6.853 9.766-12.274 17.144-16.225 7.436-3.933 16.037-5.913 25.854-5.913 7.776 0 14.479 1.133 20.181 3.303 1.994.769 4.71 2.43 7.748 4.53 5.531 3.825 10.879-.102 16.095-3.758l30.259-3.456C395.7 47.6 365.527 32.379 336.716 32.379c-18.14 0-34.183 3.382-48.155 10.133-13.999 6.757-24.856 16.082-32.636 28.009-6.429 9.95-10.056 21.003-11.122 33.132l-18.357-68.662h-40.52l-72.9 102.557H57.178l5.521-23.965h58.005l6.033-27.756H69.142l5.051-22.13h66.036l6.468-28.706H31.139L3.166 161.182" fill="#002a5c" fill-rule="nonzero"/><path d="M449.967.299l20.643 63.942 67.192.126-54.433 39.392 20.643 63.942-54.285-39.596-54.433 39.392 20.883-63.864-54.284-39.596 67.191.126L449.967.299z" fill="none" stroke="#002a5c" stroke-width="9.5"/><path d="M519.804 49.947v-8.464h-3.022V39.76h8.095v1.723h-3.016v8.464h-2.057zm6.373 0V39.76h3.078l1.849 6.949 1.827-6.949h3.086v10.187h-1.911v-8.019l-2.022 8.019h-1.981l-2.015-8.019v8.019h-1.911z" fill="#002a5c" fill-rule="nonzero" stroke="#002a5c" stroke-linejoin="round" stroke-miterlimit="2"/><path d="M449.727 29.534l14.213 43.621h45.993l-37.209 26.959 14.212 43.62-37.209-26.959-37.21 26.959 14.213-43.62-37.21-26.959h45.994l14.213-43.621z" fill="#d61f32" stroke="#002a5c" stroke-width="4"/></g></svg>