<svg fill="none" height="20" width="40" xmlns="http://www.w3.org/2000/svg"><path clip-rule="evenodd" d="M12.23 14.24c-.383-.605-.697-.926-1.254-.926s-.872.32-1.255.926L8.05 16.911c-.627 1.033-1.15 1.746-2.37 1.746s-1.777-.499-2.369-1.888a42.318 42.318 0 01-2.195-6.554C.348 7.116 0 5.193 0 3.625S.488 1.133 2.16.813C4.46.384 7.561.135 10.976.135c3.414 0 6.515.25 8.815.677 1.672.32 2.16 1.246 2.16 2.814s-.348 3.49-1.115 6.59a42.324 42.324 0 01-2.195 6.553c-.592 1.39-1.15 1.888-2.37 1.888-1.219 0-1.741-.713-2.369-1.745zm26.516 2.5c-1.185 1.282-3.415 2.208-6.342 2.208-5.888 0-9.373-4.096-9.373-9.474 0-5.77 4.007-9.19 9.199-9.19 4.634 0 7.7 2.458 7.7 5.77 0 3.135-2.613 5.165-5.575 5.165-1.602 0-2.787-.32-3.588-.961-.314-.25-.488-.214-.488.071 0 1.175.418 2.173 1.184 2.956.628.641 1.812 1.069 2.927 1.069 1.15 0 2.16-.25 3.067-.713s1.672-.32 2.125.428c.523.855-.21 1.959-.836 2.671z" fill="#000" fill-rule="evenodd"/></svg>