<?xml version="1.0" encoding="UTF-8" standalone="no"?>
<!DOCTYPE svg PUBLIC "-//W3C//DTD SVG 1.1//EN" "http://www.w3.org/Graphics/SVG/1.1/DTD/svg11.dtd">
<svg width="100%" height="100%" viewBox="0 0 528 135" version="1.1" xmlns="http://www.w3.org/2000/svg" xmlns:xlink="http://www.w3.org/1999/xlink" xml:space="preserve" xmlns:serif="http://www.serif.com/" style="fill-rule:evenodd;clip-rule:evenodd;stroke-linejoin:round;stroke-miterlimit:2;">
    <g transform="matrix(1,0,0,1,-135.323,-344.088)">
        <g transform="matrix(0.979618,0,0,0.979618,14.1869,132.424)">
            <g>
                <g transform="matrix(1.77899,0,0,1.77899,291.957,272.092)">
                    <path d="M0,14.324L15.662,-9.597L21.143,14.324L0,14.324ZM-94.318,43.429L-94.318,44.102L-44.006,44.045L-19.617,44.045L-10.152,29.718L24.639,29.718L27.918,44.045L50.914,44.045L47.592,31.644C50.885,35.752 55.188,39.071 60.668,41.459C66.865,44.177 74.076,45.529 82.33,45.529C88.471,45.529 94.342,44.784 99.908,43.26C105.465,41.767 110.342,39.539 114.545,36.669L121.441,5.571L101.01,5.571L96.342,26.445C93.072,27.649 89.439,28.232 85.484,28.232C78.871,28.232 73.709,26.74 70.072,23.748C66.414,20.777 64.578,16.744 64.578,11.687C64.578,6.784 65.707,2.386 67.953,-1.493C70.238,-5.345 73.443,-8.392 77.59,-10.613C81.77,-12.824 86.605,-13.937 92.123,-13.937C96.494,-13.937 100.262,-13.3 103.467,-12.08C104.588,-11.648 106.115,-10.714 107.822,-9.534C110.931,-7.384 113.938,-9.591 116.87,-11.647L133.879,-13.589C126.332,-22.649 109.371,-31.205 93.176,-31.205C82.979,-31.205 73.961,-29.304 66.107,-25.509C58.238,-21.711 52.135,-16.469 47.762,-9.765C44.148,-4.172 42.109,2.041 41.51,8.859L31.191,-29.737L8.414,-29.737L-32.564,27.912L-63.957,27.912L-60.854,14.441L-28.248,14.441L-24.857,-1.161L-57.232,-1.161L-54.393,-13.601L-17.273,-13.601L-13.637,-29.737L-78.594,-29.737L-94.318,41.197" style="fill:white;fill-rule:nonzero;stroke:white;stroke-width:0.57px;"/>
                </g>
                <g transform="matrix(0.426957,0,0,0.426957,-3630.17,-446.511)">
                    <path d="M10003.3,1594.2L10003.3,1574.38L9996.21,1574.38L9996.21,1570.34L10015.2,1570.34L10015.2,1574.38L10008.1,1574.38L10008.1,1594.2L10003.3,1594.2Z" style="fill:white;fill-rule:nonzero;stroke:white;stroke-width:2.39px;"/>
                    <path d="M10018.2,1594.2L10018.2,1570.34L10025.4,1570.34L10029.8,1586.62L10034,1570.34L10041.3,1570.34L10041.3,1594.2L10036.8,1594.2L10036.8,1575.42L10032,1594.2L10027.4,1594.2L10022.7,1575.42L10022.7,1594.2L10018.2,1594.2Z" style="fill:white;fill-rule:nonzero;stroke:white;stroke-width:2.39px;"/>
                </g>
            </g>
        </g>
        <g transform="matrix(1,0,0,1,-0.40363,-48.6012)">
            <g transform="matrix(1,0,0,1,-1,0)">
                <path d="M539.242,446.857L546.227,446.857L548.922,457.311L551.606,446.857L558.566,446.857L558.566,464.037L554.231,464.037L554.231,450.936L550.867,464.037L546.941,464.037L543.59,450.936L543.59,464.037L539.242,464.037L539.242,446.857Z" style="fill:white;fill-rule:nonzero;stroke:white;stroke-width:0.95px;"/>
            </g>
            <path d="M586.585,446.857L591.881,446.857L591.881,457.1C591.881,458.115 591.723,459.074 591.407,459.977C591.09,460.879 590.594,461.668 589.919,462.344C589.243,463.019 588.534,463.494 587.792,463.768C586.76,464.15 585.522,464.342 584.077,464.342C583.241,464.342 582.329,464.283 581.34,464.166C580.352,464.049 579.526,463.816 578.862,463.469C578.198,463.121 577.59,462.627 577.04,461.986C576.489,461.346 576.112,460.686 575.909,460.006C575.581,458.912 575.417,457.943 575.417,457.1L575.417,446.857L580.713,446.857L580.713,457.346C580.713,458.283 580.973,459.016 581.493,459.543C582.012,460.07 582.733,460.334 583.655,460.334C584.569,460.334 585.286,460.074 585.805,459.555C586.325,459.035 586.585,458.299 586.585,457.346L586.585,446.857Z" style="fill:white;fill-rule:nonzero;stroke:white;stroke-width:0.95px;"/>
            <g transform="matrix(1,0,0,1,2,0)">
                <path d="M602.559,458.353L607.61,458.037C607.719,458.857 607.942,459.482 608.278,459.912C608.825,460.607 609.606,460.955 610.622,460.955C611.379,460.955 611.963,460.777 612.374,460.422C612.784,460.066 612.989,459.654 612.989,459.186C612.989,458.74 612.793,458.342 612.403,457.99C612.012,457.639 611.106,457.307 609.684,456.994C607.356,456.471 605.696,455.775 604.704,454.908C603.704,454.041 603.204,452.936 603.204,451.592C603.204,450.709 603.46,449.875 603.971,449.09C604.483,448.305 605.252,447.687 606.28,447.238C607.307,446.789 608.715,446.564 610.504,446.564C612.7,446.564 614.374,446.973 615.526,447.789C616.678,448.605 617.364,449.904 617.583,451.686L612.579,451.978C612.446,451.205 612.167,450.643 611.741,450.291C611.315,449.939 610.727,449.764 609.977,449.764C609.36,449.764 608.895,449.894 608.583,450.156C608.27,450.418 608.114,450.736 608.114,451.111C608.114,451.385 608.243,451.631 608.501,451.85C608.751,452.076 609.344,452.287 610.282,452.482C612.602,452.982 614.264,453.488 615.268,454C616.272,454.512 617.002,455.146 617.46,455.904C617.917,456.662 618.145,457.51 618.145,458.447C618.145,459.549 617.84,460.564 617.231,461.494C616.622,462.424 615.77,463.129 614.676,463.609C613.583,464.09 612.204,464.33 610.54,464.33C607.618,464.33 605.594,463.768 604.469,462.643C603.344,461.518 602.708,460.088 602.559,458.353Z" style="fill:white;fill-rule:nonzero;stroke:white;stroke-width:0.95px;"/>
            </g>
            <rect x="629.116" y="446.857" width="5.32" height="17.18" style="fill:white;fill-rule:nonzero;stroke:white;stroke-width:0.95px;"/>
            <path d="M657.77,457.018L662.422,458.424C662.11,459.728 661.618,460.818 660.946,461.693C660.274,462.568 659.44,463.228 658.444,463.674C657.448,464.119 656.18,464.342 654.641,464.342C652.774,464.342 651.248,464.07 650.065,463.527C648.881,462.984 647.86,462.029 647,460.662C646.141,459.295 645.711,457.545 645.711,455.412C645.711,452.568 646.467,450.383 647.979,448.855C649.491,447.328 651.629,446.564 654.395,446.564C656.559,446.564 658.26,447.002 659.498,447.877C660.737,448.752 661.657,450.096 662.258,451.908L657.571,452.951C657.407,452.428 657.235,452.045 657.055,451.803C656.758,451.396 656.395,451.084 655.965,450.865C655.536,450.646 655.055,450.537 654.524,450.537C653.321,450.537 652.399,451.021 651.758,451.99C651.274,452.709 651.032,453.838 651.032,455.377C651.032,457.283 651.321,458.59 651.899,459.297C652.477,460.004 653.289,460.357 654.336,460.357C655.352,460.357 656.12,460.072 656.639,459.502C657.159,458.932 657.536,458.103 657.77,457.018Z" style="fill:white;fill-rule:nonzero;stroke:white;stroke-width:0.95px;"/>
        </g>
    </g>
</svg>
