<?xml version="1.0" encoding="UTF-8" standalone="no"?><!DOCTYPE svg PUBLIC "-//W3C//DTD SVG 1.1//EN" "http://www.w3.org/Graphics/SVG/1.1/DTD/svg11.dtd"><svg width="100%" height="100%" viewBox="0 0 190 13" version="1.1" xmlns="http://www.w3.org/2000/svg" xmlns:xlink="http://www.w3.org/1999/xlink" xml:space="preserve" xmlns:serif="http://www.serif.com/" style="fill-rule:evenodd;clip-rule:evenodd;stroke-linejoin:round;stroke-miterlimit:2;"><rect id="Artboard1" x="0" y="0" width="190" height="13" style="fill:none;"/><g id="Artboard11" serif:id="Artboard1"><g><path d="M4.952,9.094c-0.354,-0 -0.65,-0.07 -0.888,-0.211c-0.238,-0.14 -0.429,-0.324 -0.571,-0.552c-0.146,-0.224 -0.251,-0.477 -0.314,-0.76c-0.063,-0.283 -0.095,-0.568 -0.095,-0.857l0,-0.257c0,-0.285 0.032,-0.567 0.095,-0.848c0.063,-0.281 0.168,-0.535 0.314,-0.763c0.147,-0.224 0.339,-0.406 0.577,-0.546c0.238,-0.141 0.532,-0.211 0.882,-0.211c0.228,0 0.44,0.039 0.638,0.116c0.197,0.077 0.367,0.183 0.509,0.317c0.143,0.135 0.256,0.29 0.339,0.467c0.083,0.177 0.127,0.366 0.131,0.565l1.068,-0c0,-0.334 -0.067,-0.647 -0.201,-0.94c-0.134,-0.293 -0.32,-0.547 -0.556,-0.763c-0.24,-0.212 -0.523,-0.379 -0.851,-0.503c-0.328,-0.125 -0.687,-0.187 -1.077,-0.187c-0.501,0 -0.938,0.09 -1.312,0.269c-0.375,0.179 -0.686,0.419 -0.934,0.72c-0.253,0.305 -0.442,0.657 -0.568,1.056c-0.126,0.399 -0.189,0.816 -0.189,1.251l-0,0.257c-0,0.439 0.063,0.857 0.189,1.254c0.126,0.397 0.315,0.746 0.568,1.047c0.248,0.305 0.559,0.547 0.934,0.726c0.374,0.179 0.811,0.269 1.312,0.269c0.35,-0 0.685,-0.06 1.007,-0.181c0.321,-0.12 0.606,-0.281 0.854,-0.485c0.249,-0.199 0.447,-0.432 0.595,-0.699c0.149,-0.266 0.225,-0.546 0.229,-0.839l-1.068,0c-0.004,0.183 -0.052,0.353 -0.143,0.51c-0.092,0.156 -0.213,0.292 -0.363,0.406c-0.151,0.118 -0.323,0.209 -0.516,0.274c-0.193,0.065 -0.392,0.098 -0.595,0.098Z" style="fill-rule:nonzero;"/><path d="M9.322,6.524l-0,0.135c-0,0.476 0.069,0.917 0.207,1.324c0.139,0.407 0.338,0.761 0.599,1.062c0.256,0.301 0.57,0.537 0.943,0.708c0.372,0.171 0.792,0.257 1.26,0.257c0.464,-0 0.881,-0.086 1.251,-0.257c0.37,-0.171 0.686,-0.407 0.946,-0.708c0.257,-0.301 0.454,-0.655 0.592,-1.062c0.139,-0.407 0.208,-0.848 0.208,-1.324l-0,-0.135c-0,-0.476 -0.069,-0.918 -0.208,-1.327c-0.138,-0.409 -0.335,-0.764 -0.592,-1.065c-0.26,-0.301 -0.577,-0.538 -0.949,-0.711c-0.372,-0.173 -0.792,-0.26 -1.26,-0.26c-0.464,0 -0.881,0.087 -1.251,0.26c-0.371,0.173 -0.684,0.41 -0.94,0.711c-0.261,0.301 -0.46,0.656 -0.599,1.065c-0.138,0.409 -0.207,0.851 -0.207,1.327Zm1.129,0.135l0,-0.135c0,-0.321 0.039,-0.629 0.116,-0.924c0.077,-0.295 0.195,-0.555 0.354,-0.778c0.155,-0.224 0.348,-0.402 0.58,-0.535c0.232,-0.132 0.504,-0.198 0.818,-0.198c0.313,0 0.587,0.066 0.821,0.198c0.234,0.133 0.43,0.311 0.589,0.535c0.154,0.223 0.271,0.483 0.351,0.778c0.079,0.295 0.119,0.603 0.119,0.924l-0,0.135c-0,0.325 -0.039,0.635 -0.116,0.93c-0.078,0.295 -0.194,0.555 -0.348,0.779c-0.159,0.223 -0.355,0.4 -0.589,0.531c-0.234,0.13 -0.506,0.195 -0.815,0.195c-0.313,-0 -0.588,-0.065 -0.824,-0.195c-0.236,-0.131 -0.431,-0.308 -0.586,-0.531c-0.159,-0.224 -0.277,-0.484 -0.354,-0.779c-0.077,-0.295 -0.116,-0.605 -0.116,-0.93Z" style="fill-rule:nonzero;"/><path d="M17.141,9.887l1.129,0l-0,-4.736c0.077,-0.142 0.168,-0.273 0.271,-0.391c0.104,-0.118 0.217,-0.221 0.339,-0.311c0.151,-0.102 0.315,-0.182 0.494,-0.241c0.179,-0.059 0.373,-0.088 0.58,-0.088c0.24,-0 0.453,0.028 0.638,0.085c0.185,0.057 0.343,0.149 0.473,0.275c0.126,0.126 0.222,0.291 0.287,0.494c0.065,0.204 0.098,0.452 0.098,0.745l-0,4.168l1.129,0l-0,-4.193c-0,-0.439 -0.054,-0.819 -0.162,-1.138c-0.108,-0.319 -0.261,-0.583 -0.461,-0.79c-0.199,-0.208 -0.44,-0.36 -0.723,-0.458c-0.283,-0.098 -0.597,-0.147 -0.943,-0.147c-0.256,0.004 -0.5,0.042 -0.729,0.113c-0.23,0.071 -0.443,0.172 -0.638,0.302c-0.13,0.086 -0.254,0.187 -0.37,0.303c-0.115,0.116 -0.222,0.243 -0.32,0.381l-0.079,-0.977l-1.013,0l-0,6.604Z" style="fill-rule:nonzero;"/><path d="M27.315,1.684l-1.135,0l-0,1.599l-1.734,0l0,0.873l1.734,0l-0,3.589c-0,0.407 0.054,0.754 0.162,1.041c0.107,0.287 0.255,0.52 0.442,0.699c0.187,0.183 0.408,0.316 0.662,0.399c0.255,0.084 0.528,0.126 0.821,0.126c0.175,-0 0.351,-0.009 0.528,-0.025c0.177,-0.016 0.345,-0.041 0.504,-0.073c0.158,-0.029 0.305,-0.064 0.439,-0.107c0.134,-0.043 0.248,-0.093 0.342,-0.149l-0.159,-0.8c-0.069,0.016 -0.157,0.036 -0.265,0.058c-0.108,0.022 -0.223,0.044 -0.345,0.064c-0.126,0.02 -0.254,0.038 -0.385,0.052c-0.13,0.014 -0.256,0.021 -0.378,0.021c-0.167,0 -0.325,-0.02 -0.473,-0.061c-0.149,-0.04 -0.28,-0.112 -0.394,-0.213c-0.114,-0.098 -0.203,-0.23 -0.268,-0.397c-0.065,-0.167 -0.098,-0.379 -0.098,-0.635l0,-3.589l2.515,0l-0,-0.873l-2.515,0l0,-1.599Z" style="fill-rule:nonzero;"/><path d="M36.483,9.887l1.178,0l-0,-0.097c-0.074,-0.183 -0.131,-0.398 -0.171,-0.644c-0.041,-0.246 -0.061,-0.479 -0.061,-0.699l-0,-3.07c-0,-0.37 -0.068,-0.694 -0.202,-0.971c-0.134,-0.276 -0.317,-0.508 -0.549,-0.695c-0.236,-0.183 -0.515,-0.321 -0.836,-0.412c-0.322,-0.092 -0.67,-0.138 -1.044,-0.138c-0.411,0 -0.778,0.057 -1.102,0.171c-0.323,0.114 -0.597,0.263 -0.821,0.446c-0.227,0.187 -0.401,0.397 -0.521,0.628c-0.121,0.232 -0.183,0.468 -0.187,0.709l1.136,-0c-0,-0.139 0.033,-0.272 0.1,-0.4c0.067,-0.128 0.162,-0.239 0.284,-0.333c0.122,-0.094 0.272,-0.169 0.449,-0.226c0.177,-0.057 0.377,-0.085 0.601,-0.085c0.24,-0 0.457,0.03 0.65,0.091c0.193,0.061 0.357,0.147 0.491,0.257c0.135,0.114 0.238,0.25 0.312,0.409c0.073,0.158 0.109,0.337 0.109,0.537l0,0.519l-1.232,-0c-0.46,-0 -0.876,0.044 -1.249,0.134c-0.372,0.089 -0.69,0.224 -0.955,0.403c-0.264,0.183 -0.469,0.411 -0.613,0.683c-0.145,0.273 -0.217,0.59 -0.217,0.952c0,0.277 0.054,0.534 0.162,0.772c0.108,0.239 0.261,0.443 0.461,0.614c0.195,0.175 0.434,0.313 0.717,0.415c0.283,0.102 0.599,0.153 0.949,0.153c0.216,-0 0.419,-0.023 0.61,-0.068c0.191,-0.044 0.373,-0.105 0.543,-0.183c0.167,-0.077 0.321,-0.167 0.461,-0.268c0.141,-0.102 0.268,-0.21 0.382,-0.324c0.012,0.139 0.031,0.272 0.058,0.4c0.026,0.128 0.062,0.235 0.107,0.32Zm-1.996,-0.86c-0.22,-0 -0.413,-0.029 -0.58,-0.086c-0.167,-0.057 -0.305,-0.136 -0.415,-0.238c-0.11,-0.097 -0.192,-0.215 -0.247,-0.354c-0.055,-0.138 -0.083,-0.289 -0.083,-0.451c0,-0.171 0.032,-0.324 0.095,-0.458c0.063,-0.134 0.155,-0.25 0.278,-0.348c0.17,-0.138 0.401,-0.241 0.692,-0.308c0.291,-0.067 0.632,-0.101 1.023,-0.101l1.049,0l0,1.337c-0.065,0.13 -0.154,0.255 -0.268,0.375c-0.114,0.12 -0.248,0.227 -0.403,0.321c-0.159,0.093 -0.334,0.168 -0.525,0.225c-0.191,0.057 -0.397,0.086 -0.616,0.086Z" style="fill-rule:nonzero;"/><path d="M42.458,9.094c-0.354,-0 -0.65,-0.07 -0.888,-0.211c-0.238,-0.14 -0.428,-0.324 -0.571,-0.552c-0.146,-0.224 -0.251,-0.477 -0.314,-0.76c-0.063,-0.283 -0.095,-0.568 -0.095,-0.857l0,-0.257c0,-0.285 0.032,-0.567 0.095,-0.848c0.063,-0.281 0.168,-0.535 0.314,-0.763c0.147,-0.224 0.339,-0.406 0.577,-0.546c0.238,-0.141 0.532,-0.211 0.882,-0.211c0.228,0 0.44,0.039 0.638,0.116c0.197,0.077 0.367,0.183 0.509,0.317c0.143,0.135 0.256,0.29 0.339,0.467c0.084,0.177 0.127,0.366 0.131,0.565l1.068,-0c0,-0.334 -0.067,-0.647 -0.201,-0.94c-0.134,-0.293 -0.319,-0.547 -0.555,-0.763c-0.24,-0.212 -0.524,-0.379 -0.852,-0.503c-0.327,-0.125 -0.686,-0.187 -1.077,-0.187c-0.501,0 -0.938,0.09 -1.312,0.269c-0.375,0.179 -0.686,0.419 -0.934,0.72c-0.252,0.305 -0.442,0.657 -0.568,1.056c-0.126,0.399 -0.189,0.816 -0.189,1.251l-0,0.257c-0,0.439 0.063,0.857 0.189,1.254c0.126,0.397 0.316,0.746 0.568,1.047c0.248,0.305 0.559,0.547 0.934,0.726c0.374,0.179 0.811,0.269 1.312,0.269c0.35,-0 0.686,-0.06 1.007,-0.181c0.321,-0.12 0.606,-0.281 0.854,-0.485c0.249,-0.199 0.447,-0.432 0.596,-0.699c0.148,-0.266 0.224,-0.546 0.228,-0.839l-1.068,0c-0.004,0.183 -0.052,0.353 -0.143,0.51c-0.092,0.156 -0.213,0.292 -0.363,0.406c-0.151,0.118 -0.323,0.209 -0.516,0.274c-0.193,0.065 -0.392,0.098 -0.595,0.098Z" style="fill-rule:nonzero;"/><path d="M49.819,1.684l-1.136,0l0,1.599l-1.733,0l0,0.873l1.733,0l0,3.589c0,0.407 0.054,0.754 0.162,1.041c0.108,0.287 0.256,0.52 0.443,0.699c0.187,0.183 0.408,0.316 0.662,0.399c0.254,0.084 0.528,0.126 0.821,0.126c0.175,-0 0.351,-0.009 0.528,-0.025c0.177,-0.016 0.345,-0.041 0.503,-0.073c0.159,-0.029 0.306,-0.064 0.44,-0.107c0.134,-0.043 0.248,-0.093 0.342,-0.149l-0.159,-0.8c-0.069,0.016 -0.158,0.036 -0.266,0.058c-0.107,0.022 -0.222,0.044 -0.344,0.064c-0.127,0.02 -0.255,0.038 -0.385,0.052c-0.13,0.014 -0.256,0.021 -0.378,0.021c-0.167,0 -0.325,-0.02 -0.473,-0.061c-0.149,-0.04 -0.28,-0.112 -0.394,-0.213c-0.114,-0.098 -0.204,-0.23 -0.269,-0.397c-0.065,-0.167 -0.097,-0.379 -0.097,-0.635l-0,-3.589l2.514,0l0,-0.873l-2.514,0l-0,-1.599Z" style="fill-rule:nonzero;"/><path d="M60.659,5.072c0.016,-0.615 -0.041,-1.173 -0.171,-1.676c-0.131,-0.502 -0.326,-0.932 -0.586,-1.291c-0.265,-0.358 -0.59,-0.633 -0.977,-0.827c-0.386,-0.193 -0.828,-0.289 -1.324,-0.289c-0.509,-0 -0.974,0.115 -1.395,0.347c-0.421,0.232 -0.786,0.552 -1.096,0.959c-0.325,0.427 -0.584,0.934 -0.778,1.519c-0.193,0.586 -0.302,1.205 -0.326,1.856c-0.021,0.622 0.029,1.195 0.149,1.718c0.12,0.523 0.317,0.974 0.589,1.352c0.269,0.378 0.618,0.672 1.047,0.882c0.429,0.21 0.943,0.314 1.541,0.314c0.13,0 0.269,-0.009 0.415,-0.027c0.147,-0.018 0.291,-0.048 0.434,-0.089c0.142,-0.036 0.278,-0.083 0.408,-0.14c0.131,-0.057 0.247,-0.124 0.348,-0.201l-0.195,-0.715c-0.089,0.061 -0.189,0.116 -0.299,0.165c-0.11,0.049 -0.226,0.09 -0.348,0.122c-0.122,0.037 -0.246,0.064 -0.372,0.083c-0.126,0.018 -0.25,0.027 -0.373,0.027c-0.455,0 -0.851,-0.078 -1.187,-0.235c-0.335,-0.157 -0.611,-0.385 -0.827,-0.686c-0.215,-0.298 -0.372,-0.662 -0.47,-1.093c-0.097,-0.431 -0.136,-0.924 -0.116,-1.477c0.017,-0.59 0.1,-1.132 0.251,-1.627c0.15,-0.494 0.362,-0.916 0.634,-1.266c0.257,-0.326 0.547,-0.577 0.87,-0.754c0.324,-0.177 0.683,-0.265 1.077,-0.265c0.391,-0 0.739,0.075 1.044,0.225c0.305,0.151 0.564,0.369 0.775,0.653c0.208,0.285 0.362,0.633 0.464,1.044c0.102,0.411 0.145,0.875 0.128,1.392c-0.004,0.297 -0.026,0.578 -0.067,0.842c-0.041,0.265 -0.1,0.494 -0.177,0.69c-0.077,0.199 -0.174,0.357 -0.29,0.473c-0.116,0.116 -0.249,0.174 -0.4,0.174c-0.065,-0 -0.126,-0.01 -0.183,-0.031c-0.057,-0.02 -0.103,-0.061 -0.14,-0.122c-0.041,-0.057 -0.071,-0.137 -0.092,-0.241c-0.02,-0.104 -0.024,-0.239 -0.012,-0.406l0.269,-3.076c-0.106,-0.146 -0.248,-0.274 -0.427,-0.381c-0.18,-0.108 -0.405,-0.162 -0.678,-0.162c-0.289,-0 -0.553,0.068 -0.793,0.204c-0.241,0.137 -0.45,0.331 -0.629,0.583c-0.183,0.256 -0.332,0.567 -0.446,0.931c-0.114,0.364 -0.189,0.772 -0.225,1.224c-0.025,0.317 -0.02,0.608 0.015,0.872c0.034,0.265 0.098,0.493 0.192,0.684c0.09,0.191 0.208,0.34 0.354,0.446c0.147,0.105 0.319,0.158 0.519,0.158c0.138,0 0.27,-0.02 0.397,-0.061c0.126,-0.04 0.244,-0.097 0.354,-0.171c0.089,-0.065 0.174,-0.14 0.253,-0.225c0.079,-0.086 0.151,-0.179 0.217,-0.281c0.028,0.097 0.065,0.186 0.109,0.265c0.045,0.08 0.098,0.15 0.159,0.211c0.086,0.085 0.187,0.15 0.305,0.195c0.118,0.045 0.251,0.067 0.397,0.067c0.301,0 0.555,-0.087 0.763,-0.262c0.207,-0.175 0.378,-0.401 0.513,-0.678c0.13,-0.276 0.227,-0.585 0.293,-0.924c0.065,-0.34 0.103,-0.673 0.116,-0.998Zm-4.206,0.702c0.033,-0.334 0.083,-0.636 0.15,-0.907c0.067,-0.27 0.155,-0.501 0.265,-0.692c0.11,-0.188 0.245,-0.333 0.406,-0.437c0.161,-0.104 0.349,-0.155 0.565,-0.155c0.061,-0 0.121,0.006 0.18,0.018c0.059,0.012 0.117,0.032 0.174,0.061l-0.232,2.655l-0.006,0.061c-0.045,0.098 -0.094,0.184 -0.147,0.259c-0.053,0.076 -0.108,0.142 -0.165,0.199c-0.093,0.089 -0.196,0.154 -0.308,0.195c-0.112,0.041 -0.229,0.061 -0.351,0.061c-0.097,0 -0.182,-0.029 -0.253,-0.088c-0.071,-0.059 -0.129,-0.146 -0.174,-0.26c-0.045,-0.11 -0.075,-0.247 -0.092,-0.412c-0.016,-0.165 -0.02,-0.351 -0.012,-0.558Z" style="fill-rule:nonzero;"/><path d="M65.065,10.01c0.643,-0 1.183,-0.13 1.621,-0.388c0.437,-0.258 0.766,-0.554 0.986,-0.888l-0.69,-0.537c-0.208,0.268 -0.468,0.484 -0.781,0.647c-0.314,0.163 -0.672,0.244 -1.075,0.244c-0.305,-0 -0.584,-0.057 -0.836,-0.171c-0.252,-0.114 -0.468,-0.271 -0.647,-0.47c-0.175,-0.187 -0.312,-0.403 -0.412,-0.647c-0.099,-0.244 -0.164,-0.527 -0.192,-0.848l-0,-0.043l4.718,-0l-0,-0.507c-0,-0.459 -0.058,-0.887 -0.174,-1.281c-0.116,-0.395 -0.292,-0.739 -0.528,-1.032c-0.236,-0.289 -0.532,-0.516 -0.888,-0.68c-0.356,-0.165 -0.772,-0.248 -1.248,-0.248c-0.379,0 -0.748,0.078 -1.108,0.232c-0.36,0.155 -0.681,0.377 -0.961,0.666c-0.285,0.293 -0.513,0.65 -0.684,1.071c-0.171,0.421 -0.256,0.898 -0.256,1.431l-0,0.256c-0,0.46 0.077,0.885 0.232,1.276c0.154,0.391 0.37,0.728 0.647,1.013c0.276,0.285 0.609,0.507 0.998,0.665c0.388,0.159 0.814,0.239 1.278,0.239Zm-0.146,-5.921c0.289,0 0.538,0.053 0.748,0.159c0.209,0.106 0.383,0.244 0.521,0.415c0.139,0.171 0.247,0.373 0.324,0.607c0.077,0.234 0.116,0.453 0.116,0.656l-0,0.055l-3.552,0c0.044,-0.305 0.123,-0.575 0.235,-0.809c0.111,-0.233 0.249,-0.432 0.412,-0.595c0.162,-0.158 0.345,-0.279 0.549,-0.363c0.203,-0.083 0.419,-0.125 0.647,-0.125Z" style="fill-rule:nonzero;"/><path d="M73.989,9.887l1.178,0l-0,-0.097c-0.074,-0.183 -0.131,-0.398 -0.171,-0.644c-0.041,-0.246 -0.061,-0.479 -0.061,-0.699l-0,-3.07c-0,-0.37 -0.067,-0.694 -0.202,-0.971c-0.134,-0.276 -0.317,-0.508 -0.549,-0.695c-0.236,-0.183 -0.515,-0.321 -0.836,-0.412c-0.322,-0.092 -0.67,-0.138 -1.044,-0.138c-0.411,0 -0.778,0.057 -1.102,0.171c-0.323,0.114 -0.597,0.263 -0.821,0.446c-0.227,0.187 -0.401,0.397 -0.521,0.628c-0.12,0.232 -0.182,0.468 -0.187,0.709l1.136,-0c-0,-0.139 0.033,-0.272 0.1,-0.4c0.068,-0.128 0.162,-0.239 0.284,-0.333c0.122,-0.094 0.272,-0.169 0.449,-0.226c0.177,-0.057 0.377,-0.085 0.601,-0.085c0.24,-0 0.457,0.03 0.65,0.091c0.193,0.061 0.357,0.147 0.491,0.257c0.135,0.114 0.238,0.25 0.312,0.409c0.073,0.158 0.11,0.337 0.11,0.537l-0,0.519l-1.233,-0c-0.46,-0 -0.876,0.044 -1.249,0.134c-0.372,0.089 -0.69,0.224 -0.955,0.403c-0.264,0.183 -0.469,0.411 -0.613,0.683c-0.145,0.273 -0.217,0.59 -0.217,0.952c0,0.277 0.054,0.534 0.162,0.772c0.108,0.239 0.261,0.443 0.461,0.614c0.195,0.175 0.434,0.313 0.717,0.415c0.283,0.102 0.599,0.153 0.949,0.153c0.216,-0 0.419,-0.023 0.61,-0.068c0.192,-0.044 0.373,-0.105 0.544,-0.183c0.166,-0.077 0.32,-0.167 0.46,-0.268c0.141,-0.102 0.268,-0.21 0.382,-0.324c0.012,0.139 0.031,0.272 0.058,0.4c0.026,0.128 0.062,0.235 0.107,0.32Zm-1.996,-0.86c-0.22,-0 -0.413,-0.029 -0.58,-0.086c-0.167,-0.057 -0.305,-0.136 -0.415,-0.238c-0.11,-0.097 -0.192,-0.215 -0.247,-0.354c-0.055,-0.138 -0.083,-0.289 -0.083,-0.451c0,-0.171 0.032,-0.324 0.095,-0.458c0.063,-0.134 0.156,-0.25 0.278,-0.348c0.171,-0.138 0.401,-0.241 0.692,-0.308c0.291,-0.067 0.632,-0.101 1.023,-0.101l1.05,0l-0,1.337c-0.066,0.13 -0.155,0.255 -0.269,0.375c-0.114,0.12 -0.248,0.227 -0.403,0.321c-0.159,0.093 -0.334,0.168 -0.525,0.225c-0.191,0.057 -0.396,0.086 -0.616,0.086Z" style="fill-rule:nonzero;"/><path d="M76.943,6.531l-0,0.128c-0,0.472 0.061,0.912 0.183,1.321c0.122,0.409 0.297,0.764 0.525,1.065c0.224,0.301 0.498,0.537 0.824,0.708c0.325,0.171 0.689,0.257 1.092,0.257c0.24,-0 0.464,-0.026 0.672,-0.077c0.207,-0.051 0.396,-0.123 0.567,-0.216c0.11,-0.061 0.213,-0.133 0.309,-0.214c0.095,-0.081 0.186,-0.171 0.271,-0.269l0,0.568c0,0.285 -0.041,0.537 -0.122,0.757c-0.081,0.22 -0.197,0.403 -0.348,0.549c-0.154,0.151 -0.34,0.265 -0.555,0.342c-0.216,0.077 -0.458,0.116 -0.727,0.116c-0.15,-0 -0.301,-0.015 -0.451,-0.046c-0.151,-0.03 -0.301,-0.08 -0.452,-0.149c-0.15,-0.07 -0.299,-0.162 -0.445,-0.278c-0.147,-0.116 -0.289,-0.257 -0.428,-0.424l-0.586,0.677c0.151,0.216 0.331,0.397 0.541,0.543c0.209,0.147 0.428,0.263 0.656,0.348c0.223,0.09 0.445,0.154 0.665,0.193c0.22,0.038 0.415,0.058 0.586,0.058c0.415,-0 0.793,-0.061 1.135,-0.184c0.342,-0.122 0.637,-0.301 0.885,-0.537c0.244,-0.236 0.434,-0.523 0.571,-0.86c0.136,-0.338 0.204,-0.725 0.204,-1.16l0,-6.464l-1.025,0l-0.055,0.721c-0.077,-0.098 -0.16,-0.188 -0.247,-0.269c-0.088,-0.081 -0.18,-0.152 -0.278,-0.214c-0.179,-0.118 -0.379,-0.207 -0.601,-0.268c-0.222,-0.061 -0.465,-0.092 -0.73,-0.092c-0.411,0 -0.779,0.084 -1.104,0.251c-0.326,0.166 -0.602,0.398 -0.83,0.695c-0.228,0.297 -0.402,0.652 -0.522,1.065c-0.12,0.413 -0.18,0.866 -0.18,1.359Zm1.129,0.128l-0,-0.128c-0,-0.322 0.033,-0.628 0.101,-0.919c0.067,-0.291 0.174,-0.548 0.32,-0.772c0.142,-0.22 0.327,-0.395 0.552,-0.525c0.226,-0.13 0.498,-0.195 0.815,-0.195c0.187,-0 0.358,0.023 0.513,0.07c0.155,0.047 0.295,0.111 0.421,0.192c0.126,0.086 0.238,0.185 0.336,0.299c0.097,0.114 0.183,0.24 0.256,0.379l0,3.027c-0.073,0.142 -0.159,0.273 -0.256,0.391c-0.098,0.118 -0.208,0.219 -0.33,0.305c-0.126,0.085 -0.267,0.151 -0.424,0.198c-0.157,0.047 -0.333,0.07 -0.528,0.07c-0.313,0 -0.582,-0.064 -0.806,-0.192c-0.223,-0.128 -0.407,-0.302 -0.549,-0.522c-0.146,-0.22 -0.253,-0.474 -0.32,-0.763c-0.068,-0.289 -0.101,-0.594 -0.101,-0.915Z" style="fill-rule:nonzero;"/><path d="M84.645,12.427l1.13,-0l-0,-3.174c0.081,0.089 0.168,0.172 0.262,0.247c0.094,0.075 0.193,0.143 0.299,0.204c0.175,0.098 0.371,0.173 0.589,0.226c0.218,0.053 0.453,0.08 0.705,0.08c0.415,-0 0.784,-0.086 1.108,-0.257c0.323,-0.171 0.595,-0.407 0.815,-0.708c0.219,-0.301 0.386,-0.656 0.5,-1.065c0.114,-0.409 0.171,-0.849 0.171,-1.321l-0,-0.128c-0,-0.493 -0.057,-0.946 -0.171,-1.359c-0.114,-0.413 -0.281,-0.768 -0.5,-1.065c-0.22,-0.297 -0.493,-0.529 -0.818,-0.695c-0.326,-0.167 -0.7,-0.251 -1.123,-0.251c-0.24,0 -0.465,0.026 -0.675,0.077c-0.209,0.051 -0.4,0.125 -0.57,0.222c-0.122,0.066 -0.236,0.144 -0.342,0.235c-0.106,0.092 -0.204,0.195 -0.293,0.309l-0.055,-0.721l-1.032,0l0,9.144Zm4.45,-5.896l-0,0.128c-0,0.321 -0.036,0.628 -0.107,0.921c-0.071,0.293 -0.18,0.552 -0.327,0.775c-0.146,0.224 -0.333,0.402 -0.561,0.535c-0.228,0.132 -0.498,0.198 -0.812,0.198c-0.195,-0 -0.373,-0.025 -0.534,-0.073c-0.161,-0.049 -0.306,-0.116 -0.436,-0.202c-0.114,-0.073 -0.216,-0.163 -0.305,-0.268c-0.09,-0.106 -0.169,-0.22 -0.238,-0.342l-0,-3.18c0.077,-0.138 0.166,-0.265 0.268,-0.378c0.102,-0.114 0.218,-0.21 0.348,-0.287c0.118,-0.078 0.251,-0.137 0.4,-0.177c0.148,-0.041 0.31,-0.061 0.485,-0.061c0.317,-0 0.59,0.065 0.818,0.195c0.228,0.13 0.417,0.305 0.567,0.525c0.147,0.224 0.256,0.481 0.327,0.772c0.071,0.291 0.107,0.597 0.107,0.919Z" style="fill-rule:nonzero;"/><path d="M96.48,3.161c-0.48,0 -0.908,0.105 -1.285,0.315c-0.376,0.209 -0.699,0.495 -0.967,0.857l-0.006,-0.165l-0.049,-0.885l-1.074,0l-0,6.604l1.135,0l0,-4.235c0.073,-0.204 0.166,-0.388 0.278,-0.553c0.112,-0.165 0.243,-0.304 0.393,-0.418c0.167,-0.13 0.363,-0.229 0.586,-0.296c0.224,-0.067 0.474,-0.101 0.751,-0.101c0.216,0 0.422,0.012 0.62,0.034c0.197,0.022 0.405,0.058 0.625,0.107l0.153,-1.105c-0.114,-0.049 -0.284,-0.087 -0.51,-0.116c-0.226,-0.028 -0.442,-0.043 -0.65,-0.043Z" style="fill-rule:nonzero;"/><path d="M99.337,6.524l-0,0.135c-0,0.476 0.069,0.917 0.207,1.324c0.138,0.407 0.338,0.761 0.598,1.062c0.257,0.301 0.571,0.537 0.943,0.708c0.373,0.171 0.793,0.257 1.261,0.257c0.463,-0 0.881,-0.086 1.251,-0.257c0.37,-0.171 0.685,-0.407 0.946,-0.708c0.256,-0.301 0.454,-0.655 0.592,-1.062c0.138,-0.407 0.207,-0.848 0.207,-1.324l0,-0.135c0,-0.476 -0.069,-0.918 -0.207,-1.327c-0.138,-0.409 -0.336,-0.764 -0.592,-1.065c-0.261,-0.301 -0.577,-0.538 -0.949,-0.711c-0.373,-0.173 -0.793,-0.26 -1.261,-0.26c-0.463,0 -0.881,0.087 -1.251,0.26c-0.37,0.173 -0.683,0.41 -0.94,0.711c-0.26,0.301 -0.46,0.656 -0.598,1.065c-0.138,0.409 -0.207,0.851 -0.207,1.327Zm1.129,0.135l-0,-0.135c-0,-0.321 0.038,-0.629 0.116,-0.924c0.077,-0.295 0.195,-0.555 0.354,-0.778c0.154,-0.224 0.348,-0.402 0.58,-0.535c0.231,-0.132 0.504,-0.198 0.817,-0.198c0.314,0 0.587,0.066 0.821,0.198c0.234,0.133 0.431,0.311 0.589,0.535c0.155,0.223 0.272,0.483 0.351,0.778c0.08,0.295 0.119,0.603 0.119,0.924l0,0.135c0,0.325 -0.038,0.635 -0.116,0.93c-0.077,0.295 -0.193,0.555 -0.348,0.779c-0.158,0.223 -0.355,0.4 -0.589,0.531c-0.234,0.13 -0.505,0.195 -0.814,0.195c-0.314,-0 -0.588,-0.065 -0.824,-0.195c-0.236,-0.131 -0.432,-0.308 -0.586,-0.531c-0.159,-0.224 -0.277,-0.484 -0.354,-0.779c-0.078,-0.295 -0.116,-0.605 -0.116,-0.93Z" style="fill-rule:nonzero;"/><path d="M106.942,6.531l-0,0.128c-0,0.472 0.063,0.912 0.189,1.321c0.126,0.409 0.303,0.764 0.531,1.065c0.228,0.301 0.503,0.537 0.827,0.708c0.323,0.171 0.684,0.257 1.083,0.257c0.407,-0 0.763,-0.07 1.068,-0.208c0.305,-0.138 0.568,-0.342 0.788,-0.61l0.048,0.695l1.038,0l0,-9.375l-1.129,0l-0,3.425c-0.216,-0.253 -0.471,-0.445 -0.766,-0.577c-0.295,-0.133 -0.64,-0.199 -1.035,-0.199c-0.402,0 -0.767,0.084 -1.092,0.251c-0.326,0.166 -0.602,0.398 -0.83,0.695c-0.232,0.297 -0.41,0.652 -0.534,1.065c-0.124,0.413 -0.186,0.866 -0.186,1.359Zm1.129,0.128l-0,-0.128c-0,-0.322 0.034,-0.628 0.103,-0.919c0.07,-0.291 0.177,-0.548 0.324,-0.772c0.142,-0.22 0.326,-0.395 0.552,-0.525c0.226,-0.13 0.498,-0.195 0.815,-0.195c0.37,-0 0.68,0.086 0.928,0.259c0.248,0.173 0.445,0.394 0.592,0.662l-0,3.064c-0.147,0.289 -0.344,0.519 -0.592,0.69c-0.248,0.171 -0.562,0.256 -0.94,0.256c-0.313,0 -0.582,-0.064 -0.806,-0.192c-0.224,-0.128 -0.407,-0.302 -0.549,-0.522c-0.147,-0.22 -0.254,-0.474 -0.324,-0.763c-0.069,-0.289 -0.103,-0.594 -0.103,-0.915Z" style="fill-rule:nonzero;"/><path d="M119.008,9.887l1.026,0l-0,-6.604l-1.136,0l0,4.737c-0.061,0.142 -0.137,0.273 -0.229,0.393c-0.091,0.12 -0.198,0.223 -0.32,0.309c-0.146,0.105 -0.319,0.188 -0.519,0.247c-0.199,0.059 -0.425,0.088 -0.677,0.088c-0.216,0 -0.406,-0.028 -0.571,-0.085c-0.165,-0.057 -0.304,-0.157 -0.418,-0.299c-0.114,-0.138 -0.199,-0.326 -0.256,-0.562c-0.057,-0.236 -0.086,-0.533 -0.086,-0.891l0,-3.937l-1.129,0l-0,3.925c-0,0.492 0.054,0.915 0.162,1.266c0.108,0.352 0.261,0.642 0.461,0.87c0.199,0.228 0.439,0.396 0.72,0.504c0.281,0.108 0.594,0.162 0.94,0.162c0.431,-0 0.811,-0.091 1.141,-0.272c0.33,-0.181 0.604,-0.434 0.824,-0.76l0.067,0.909Z" style="fill-rule:nonzero;"/><path d="M124.971,9.094c-0.354,-0 -0.65,-0.07 -0.888,-0.211c-0.238,-0.14 -0.428,-0.324 -0.57,-0.552c-0.147,-0.224 -0.252,-0.477 -0.315,-0.76c-0.063,-0.283 -0.094,-0.568 -0.094,-0.857l-0,-0.257c-0,-0.285 0.031,-0.567 0.094,-0.848c0.063,-0.281 0.168,-0.535 0.315,-0.763c0.146,-0.224 0.338,-0.406 0.576,-0.546c0.238,-0.141 0.532,-0.211 0.882,-0.211c0.228,0 0.441,0.039 0.638,0.116c0.197,0.077 0.367,0.183 0.51,0.317c0.142,0.135 0.255,0.29 0.339,0.467c0.083,0.177 0.127,0.366 0.131,0.565l1.068,-0c-0,-0.334 -0.067,-0.647 -0.202,-0.94c-0.134,-0.293 -0.319,-0.547 -0.555,-0.763c-0.24,-0.212 -0.524,-0.379 -0.851,-0.503c-0.328,-0.125 -0.687,-0.187 -1.078,-0.187c-0.5,0 -0.938,0.09 -1.312,0.269c-0.374,0.179 -0.686,0.419 -0.934,0.72c-0.252,0.305 -0.441,0.657 -0.567,1.056c-0.127,0.399 -0.19,0.816 -0.19,1.251l0,0.257c0,0.439 0.063,0.857 0.19,1.254c0.126,0.397 0.315,0.746 0.567,1.047c0.248,0.305 0.56,0.547 0.934,0.726c0.374,0.179 0.812,0.269 1.312,0.269c0.35,-0 0.686,-0.06 1.007,-0.181c0.322,-0.12 0.607,-0.281 0.855,-0.485c0.248,-0.199 0.446,-0.432 0.595,-0.699c0.148,-0.266 0.225,-0.546 0.229,-0.839l-1.068,0c-0.004,0.183 -0.052,0.353 -0.144,0.51c-0.091,0.156 -0.212,0.292 -0.363,0.406c-0.15,0.118 -0.322,0.209 -0.516,0.274c-0.193,0.065 -0.391,0.098 -0.595,0.098Z" style="fill-rule:nonzero;"/><path d="M132.332,1.684l-1.135,0l-0,1.599l-1.733,0l-0,0.873l1.733,0l-0,3.589c-0,0.407 0.054,0.754 0.162,1.041c0.107,0.287 0.255,0.52 0.442,0.699c0.187,0.183 0.408,0.316 0.662,0.399c0.255,0.084 0.528,0.126 0.821,0.126c0.175,-0 0.351,-0.009 0.528,-0.025c0.177,-0.016 0.345,-0.041 0.504,-0.073c0.158,-0.029 0.305,-0.064 0.439,-0.107c0.135,-0.043 0.248,-0.093 0.342,-0.149l-0.159,-0.8c-0.069,0.016 -0.157,0.036 -0.265,0.058c-0.108,0.022 -0.223,0.044 -0.345,0.064c-0.126,0.02 -0.254,0.038 -0.385,0.052c-0.13,0.014 -0.256,0.021 -0.378,0.021c-0.167,0 -0.324,-0.02 -0.473,-0.061c-0.148,-0.04 -0.28,-0.112 -0.394,-0.213c-0.114,-0.098 -0.203,-0.23 -0.268,-0.397c-0.065,-0.167 -0.098,-0.379 -0.098,-0.635l0,-3.589l2.515,0l-0,-0.873l-2.515,0l0,-1.599Z" style="fill-rule:nonzero;"/><path d="M137.337,3.283l0,0.983l2.246,0l0,4.645l-2.246,-0l0,0.976l5.53,0l-0,-0.976l-2.155,-0l0,-5.628l-3.375,0Zm2.1,-1.733c-0,0.183 0.056,0.336 0.167,0.458c0.112,0.122 0.282,0.183 0.51,0.183c0.224,-0 0.393,-0.061 0.507,-0.183c0.114,-0.122 0.171,-0.275 0.171,-0.458c-0,-0.102 -0.017,-0.195 -0.049,-0.281c-0.033,-0.085 -0.082,-0.156 -0.147,-0.213c-0.053,-0.053 -0.12,-0.095 -0.201,-0.125c-0.081,-0.031 -0.175,-0.046 -0.281,-0.046c-0.106,-0 -0.2,0.015 -0.284,0.046c-0.083,0.03 -0.151,0.072 -0.204,0.125c-0.065,0.061 -0.113,0.134 -0.144,0.219c-0.03,0.086 -0.045,0.177 -0.045,0.275Z" style="fill-rule:nonzero;"/><path d="M144.344,6.524l-0,0.135c-0,0.476 0.069,0.917 0.207,1.324c0.139,0.407 0.338,0.761 0.599,1.062c0.256,0.301 0.57,0.537 0.943,0.708c0.372,0.171 0.792,0.257 1.26,0.257c0.464,-0 0.881,-0.086 1.251,-0.257c0.37,-0.171 0.686,-0.407 0.946,-0.708c0.257,-0.301 0.454,-0.655 0.592,-1.062c0.139,-0.407 0.208,-0.848 0.208,-1.324l-0,-0.135c-0,-0.476 -0.069,-0.918 -0.208,-1.327c-0.138,-0.409 -0.335,-0.764 -0.592,-1.065c-0.26,-0.301 -0.577,-0.538 -0.949,-0.711c-0.372,-0.173 -0.792,-0.26 -1.26,-0.26c-0.464,0 -0.881,0.087 -1.252,0.26c-0.37,0.173 -0.683,0.41 -0.939,0.711c-0.261,0.301 -0.46,0.656 -0.599,1.065c-0.138,0.409 -0.207,0.851 -0.207,1.327Zm1.129,0.135l0,-0.135c0,-0.321 0.039,-0.629 0.116,-0.924c0.077,-0.295 0.195,-0.555 0.354,-0.778c0.155,-0.224 0.348,-0.402 0.58,-0.535c0.232,-0.132 0.504,-0.198 0.818,-0.198c0.313,0 0.587,0.066 0.821,0.198c0.234,0.133 0.43,0.311 0.589,0.535c0.154,0.223 0.271,0.483 0.351,0.778c0.079,0.295 0.119,0.603 0.119,0.924l-0,0.135c-0,0.325 -0.039,0.635 -0.116,0.93c-0.078,0.295 -0.194,0.555 -0.348,0.779c-0.159,0.223 -0.355,0.4 -0.589,0.531c-0.234,0.13 -0.506,0.195 -0.815,0.195c-0.313,-0 -0.588,-0.065 -0.824,-0.195c-0.236,-0.131 -0.431,-0.308 -0.586,-0.531c-0.159,-0.224 -0.277,-0.484 -0.354,-0.779c-0.077,-0.295 -0.116,-0.605 -0.116,-0.93Z" style="fill-rule:nonzero;"/><path d="M152.162,9.887l1.13,0l-0,-4.736c0.077,-0.142 0.167,-0.273 0.271,-0.391c0.104,-0.118 0.217,-0.221 0.339,-0.311c0.151,-0.102 0.315,-0.182 0.494,-0.241c0.179,-0.059 0.373,-0.088 0.58,-0.088c0.24,-0 0.453,0.028 0.638,0.085c0.185,0.057 0.343,0.149 0.473,0.275c0.126,0.126 0.222,0.291 0.287,0.494c0.065,0.204 0.098,0.452 0.098,0.745l-0,4.168l1.129,0l-0,-4.193c-0,-0.439 -0.054,-0.819 -0.162,-1.138c-0.108,-0.319 -0.261,-0.583 -0.461,-0.79c-0.199,-0.208 -0.44,-0.36 -0.723,-0.458c-0.283,-0.098 -0.597,-0.147 -0.943,-0.147c-0.256,0.004 -0.5,0.042 -0.729,0.113c-0.23,0.071 -0.443,0.172 -0.638,0.302c-0.131,0.086 -0.254,0.187 -0.37,0.303c-0.116,0.116 -0.222,0.243 -0.32,0.381l-0.079,-0.977l-1.014,0l0,6.604Z" style="fill-rule:nonzero;"/><path d="M161.629,9.155c0,0.236 0.074,0.436 0.223,0.601c0.148,0.165 0.369,0.247 0.662,0.247c0.289,0 0.511,-0.081 0.665,-0.244c0.155,-0.162 0.232,-0.364 0.232,-0.604c0,-0.244 -0.076,-0.451 -0.229,-0.619c-0.152,-0.169 -0.375,-0.254 -0.668,-0.254c-0.297,0 -0.519,0.086 -0.665,0.257c-0.147,0.17 -0.22,0.376 -0.22,0.616Z" style="fill-rule:nonzero;"/><path d="M169.979,9.094c-0.354,-0 -0.65,-0.07 -0.888,-0.211c-0.238,-0.14 -0.429,-0.324 -0.571,-0.552c-0.147,-0.224 -0.251,-0.477 -0.314,-0.76c-0.064,-0.283 -0.095,-0.568 -0.095,-0.857l-0,-0.257c-0,-0.285 0.031,-0.567 0.095,-0.848c0.063,-0.281 0.167,-0.535 0.314,-0.763c0.146,-0.224 0.339,-0.406 0.577,-0.546c0.238,-0.141 0.532,-0.211 0.882,-0.211c0.228,0 0.44,0.039 0.637,0.116c0.198,0.077 0.368,0.183 0.51,0.317c0.143,0.135 0.255,0.29 0.339,0.467c0.083,0.177 0.127,0.366 0.131,0.565l1.068,-0c0,-0.334 -0.067,-0.647 -0.201,-0.94c-0.135,-0.293 -0.32,-0.547 -0.556,-0.763c-0.24,-0.212 -0.524,-0.379 -0.851,-0.503c-0.328,-0.125 -0.687,-0.187 -1.077,-0.187c-0.501,0 -0.938,0.09 -1.313,0.269c-0.374,0.179 -0.685,0.419 -0.933,0.72c-0.253,0.305 -0.442,0.657 -0.568,1.056c-0.126,0.399 -0.189,0.816 -0.189,1.251l-0,0.257c-0,0.439 0.063,0.857 0.189,1.254c0.126,0.397 0.315,0.746 0.568,1.047c0.248,0.305 0.559,0.547 0.933,0.726c0.375,0.179 0.812,0.269 1.313,0.269c0.35,-0 0.685,-0.06 1.007,-0.181c0.321,-0.12 0.606,-0.281 0.854,-0.485c0.248,-0.199 0.447,-0.432 0.595,-0.699c0.149,-0.266 0.225,-0.546 0.229,-0.839l-1.068,0c-0.004,0.183 -0.052,0.353 -0.143,0.51c-0.092,0.156 -0.213,0.292 -0.364,0.406c-0.15,0.118 -0.322,0.209 -0.515,0.274c-0.194,0.065 -0.392,0.098 -0.595,0.098Z" style="fill-rule:nonzero;"/><path d="M174.349,6.524l-0,0.135c-0,0.476 0.069,0.917 0.207,1.324c0.139,0.407 0.338,0.761 0.598,1.062c0.257,0.301 0.571,0.537 0.943,0.708c0.373,0.171 0.793,0.257 1.261,0.257c0.464,-0 0.881,-0.086 1.251,-0.257c0.37,-0.171 0.686,-0.407 0.946,-0.708c0.256,-0.301 0.454,-0.655 0.592,-1.062c0.138,-0.407 0.208,-0.848 0.208,-1.324l-0,-0.135c-0,-0.476 -0.07,-0.918 -0.208,-1.327c-0.138,-0.409 -0.336,-0.764 -0.592,-1.065c-0.26,-0.301 -0.577,-0.538 -0.949,-0.711c-0.372,-0.173 -0.792,-0.26 -1.26,-0.26c-0.464,0 -0.881,0.087 -1.252,0.26c-0.37,0.173 -0.683,0.41 -0.94,0.711c-0.26,0.301 -0.459,0.656 -0.598,1.065c-0.138,0.409 -0.207,0.851 -0.207,1.327Zm1.129,0.135l-0,-0.135c-0,-0.321 0.039,-0.629 0.116,-0.924c0.077,-0.295 0.195,-0.555 0.354,-0.778c0.154,-0.224 0.348,-0.402 0.58,-0.535c0.232,-0.132 0.504,-0.198 0.818,-0.198c0.313,0 0.587,0.066 0.821,0.198c0.233,0.133 0.43,0.311 0.588,0.535c0.155,0.223 0.272,0.483 0.351,0.778c0.08,0.295 0.119,0.603 0.119,0.924l0,0.135c0,0.325 -0.038,0.635 -0.116,0.93c-0.077,0.295 -0.193,0.555 -0.347,0.779c-0.159,0.223 -0.355,0.4 -0.589,0.531c-0.234,0.13 -0.506,0.195 -0.815,0.195c-0.314,-0 -0.588,-0.065 -0.824,-0.195c-0.236,-0.131 -0.432,-0.308 -0.586,-0.531c-0.159,-0.224 -0.277,-0.484 -0.354,-0.779c-0.077,-0.295 -0.116,-0.605 -0.116,-0.93Z" style="fill-rule:nonzero;"/><path d="M182.686,3.283l-1.013,0l-0,6.604l1.074,0l0,-5.255c0.025,-0.065 0.056,-0.126 0.095,-0.183c0.038,-0.057 0.084,-0.108 0.137,-0.152c0.069,-0.057 0.154,-0.101 0.253,-0.132c0.1,-0.03 0.217,-0.045 0.351,-0.045c0.122,-0 0.229,0.015 0.321,0.045c0.091,0.031 0.168,0.079 0.229,0.144c0.065,0.069 0.113,0.156 0.143,0.262c0.031,0.106 0.046,0.228 0.046,0.366l-0,4.95l1.074,0l0,-5.065c0.012,-0.102 0.037,-0.195 0.073,-0.278c0.037,-0.084 0.088,-0.158 0.153,-0.223c0.065,-0.061 0.146,-0.11 0.244,-0.146c0.098,-0.037 0.214,-0.055 0.348,-0.055c0.126,-0 0.237,0.016 0.333,0.048c0.095,0.033 0.176,0.082 0.241,0.147c0.061,0.069 0.108,0.157 0.14,0.262c0.033,0.106 0.049,0.228 0.049,0.367l-0,4.943l1.074,0l0,-4.931c0,-0.318 -0.036,-0.593 -0.11,-0.827c-0.073,-0.234 -0.179,-0.424 -0.317,-0.571c-0.126,-0.13 -0.281,-0.229 -0.464,-0.296c-0.183,-0.067 -0.389,-0.101 -0.616,-0.101c-0.167,0.004 -0.321,0.027 -0.461,0.068c-0.141,0.04 -0.268,0.095 -0.382,0.164c-0.089,0.061 -0.173,0.133 -0.25,0.214c-0.077,0.081 -0.144,0.169 -0.201,0.262c-0.045,-0.101 -0.099,-0.193 -0.162,-0.274c-0.063,-0.082 -0.133,-0.151 -0.211,-0.208c-0.105,-0.073 -0.229,-0.129 -0.369,-0.168c-0.14,-0.038 -0.298,-0.058 -0.473,-0.058c-0.309,0.004 -0.573,0.072 -0.79,0.202c-0.218,0.13 -0.394,0.311 -0.528,0.543l-0.031,-0.623Z" style="fill-rule:nonzero;"/></g></g></svg>