<?xml version="1.0" encoding="UTF-8" standalone="no"?><!DOCTYPE svg PUBLIC "-//W3C//DTD SVG 1.1//EN" "http://www.w3.org/Graphics/SVG/1.1/DTD/svg11.dtd"><svg width="100%" height="100%" viewBox="0 0 540 170" version="1.1" xmlns="http://www.w3.org/2000/svg" xmlns:xlink="http://www.w3.org/1999/xlink" xml:space="preserve" xmlns:serif="http://www.serif.com/" style="fill-rule:evenodd;clip-rule:evenodd;stroke-miterlimit:1.5;"><rect id="Artboard1" x="0" y="0" width="540" height="170" style="fill:none;"/><clipPath id="_clip1"><rect id="Artboard11" serif:id="Artboard1" x="0" y="0" width="540" height="170"/></clipPath><g clip-path="url(#_clip1)"><path d="M170.957,113.375l27.863,-42.555l9.75,42.555l-37.613,-0Zm-167.791,51.777l0,1.198l89.505,-0.102l43.388,0l16.838,-25.487l61.893,-0l5.833,25.487l40.91,0l-5.91,-22.061c5.858,7.308 13.513,13.213 23.262,17.461c11.024,4.835 23.852,7.24 38.536,7.24c10.925,0 21.369,-1.325 31.271,-4.036c9.886,-2.656 18.562,-6.62 26.039,-11.726l12.268,-55.323l-36.346,0l-8.305,37.135c-5.817,2.142 -12.28,3.179 -19.316,3.179c-11.764,0 -20.947,-2.654 -27.418,-7.977c-6.507,-5.285 -9.773,-12.46 -9.773,-21.456c-0,-8.723 2.008,-16.547 6.004,-23.447c4.065,-6.853 9.766,-12.274 17.144,-16.225c7.436,-3.933 16.037,-5.913 25.854,-5.913c7.776,-0 14.479,1.133 20.181,3.303c1.994,0.769 4.71,2.43 7.748,4.53c5.531,3.825 10.879,-0.102 16.095,-3.758l30.259,-3.456c-13.426,-16.118 -43.599,-31.339 -72.41,-31.339c-18.14,0 -34.183,3.382 -48.155,10.133c-13.999,6.757 -24.856,16.082 -32.636,28.009c-6.429,9.95 -10.056,21.003 -11.122,33.132l-18.357,-68.662l-40.52,-0l-72.9,102.557l-55.848,-0l5.521,-23.965l58.005,0l6.033,-27.756l-57.595,0l5.051,-22.13l66.036,-0l6.468,-28.706l-115.558,-0l-27.973,126.191" style="fill:#002a5c;fill-rule:nonzero;"/><path d="M449.967,0.299l20.643,63.942l67.192,0.126l-54.433,39.392l20.643,63.942l-54.285,-39.596l-54.433,39.392l20.883,-63.864l-54.284,-39.596l67.191,0.126l20.883,-63.864Z" style="fill:none;stroke:#002a5c;stroke-width:9.5px;"/><g><path d="M519.804,49.947l0,-8.464l-3.022,0l-0,-1.723l8.095,-0l0,1.723l-3.016,0l0,8.464l-2.057,0Z" style="fill:#002a5c;fill-rule:nonzero;stroke:#002a5c;stroke-width:1px;stroke-linejoin:round;stroke-miterlimit:2;"/><path d="M526.177,49.947l-0,-10.187l3.078,-0l1.849,6.949l1.827,-6.949l3.086,-0l-0,10.187l-1.911,0l-0,-8.019l-2.022,8.019l-1.981,0l-2.015,-8.019l-0,8.019l-1.911,0Z" style="fill:#002a5c;fill-rule:nonzero;stroke:#002a5c;stroke-width:1px;stroke-linejoin:round;stroke-miterlimit:2;"/></g><path d="M449.727,29.534l14.213,43.621l45.993,-0l-37.209,26.959l14.212,43.62l-37.209,-26.959l-37.21,26.959l14.213,-43.62l-37.21,-26.959l45.994,-0l14.213,-43.621Z" style="fill:#d61f32;stroke:#002a5c;stroke-width:4px;"/></g></svg>